<svg width="239" height="51" viewBox="0 0 239 51" fill="none" xmlns="http://www.w3.org/2000/svg">
<rect width="239" height="51" fill="#F5F5F5"/>
<rect width="1200" height="630" transform="translate(-411 -165)" fill="white"/>
<path d="M2.96 42V13.6H8.48V37.16H22.96V42H2.96ZM35.3231 42.4C33.6165 42.4 32.0831 42.12 30.7231 41.56C29.3631 40.9733 28.2031 40.1733 27.2431 39.16C26.3098 38.1467 25.5898 36.9867 25.0831 35.68C24.5765 34.3733 24.3231 33 24.3231 31.56C24.3231 30.0933 24.5765 28.7067 25.0831 27.4C25.5898 26.0933 26.3098 24.9333 27.2431 23.92C28.2031 22.9067 29.3631 22.12 30.7231 21.56C32.0831 20.9733 33.6165 20.68 35.3231 20.68C37.0298 20.68 38.5498 20.9733 39.8831 21.56C41.2431 22.12 42.4031 22.9067 43.3631 23.92C44.3231 24.9333 45.0431 26.0933 45.5231 27.4C46.0298 28.7067 46.2831 30.0933 46.2831 31.56C46.2831 33 46.0298 34.3733 45.5231 35.68C45.0431 36.9867 44.3231 38.1467 43.3631 39.16C42.4298 40.1733 41.2831 40.9733 39.9231 41.56C38.5631 42.12 37.0298 42.4 35.3231 42.4ZM29.8431 31.56C29.8431 32.7867 30.0831 33.88 30.5631 34.84C31.0431 35.7733 31.6965 36.5067 32.5231 37.04C33.3498 37.5733 34.2831 37.84 35.3231 37.84C36.3365 37.84 37.2565 37.5733 38.0831 37.04C38.9098 36.48 39.5631 35.7333 40.0431 34.8C40.5498 33.84 40.8031 32.7467 40.8031 31.52C40.8031 30.32 40.5498 29.24 40.0431 28.28C39.5631 27.32 38.9098 26.5733 38.0831 26.04C37.2565 25.5067 36.3365 25.24 35.3231 25.24C34.2831 25.24 33.3498 25.52 32.5231 26.08C31.6965 26.6133 31.0431 27.36 30.5631 28.32C30.0831 29.2533 29.8431 30.3333 29.8431 31.56ZM48.4609 35.8C48.4609 34.44 48.8343 33.2533 49.5809 32.24C50.3543 31.2 51.4209 30.4 52.7809 29.84C54.1409 29.28 55.7009 29 57.4609 29C58.3409 29 59.2343 29.0667 60.1409 29.2C61.0476 29.3333 61.8343 29.5467 62.5009 29.84V28.72C62.5009 27.3867 62.1009 26.36 61.3009 25.64C60.5276 24.92 59.3676 24.56 57.8209 24.56C56.6743 24.56 55.5809 24.76 54.5409 25.16C53.5009 25.56 52.4076 26.1467 51.2609 26.92L49.5409 23.4C50.9276 22.4933 52.3409 21.8133 53.7809 21.36C55.2476 20.9067 56.7809 20.68 58.3809 20.68C61.3676 20.68 63.6876 21.4267 65.3409 22.92C67.0209 24.4133 67.8609 26.5467 67.8609 29.32V36C67.8609 36.56 67.9543 36.96 68.1409 37.2C68.3543 37.44 68.6876 37.5867 69.1409 37.64V42C68.6609 42.08 68.2209 42.1467 67.8209 42.2C67.4476 42.2533 67.1276 42.28 66.8609 42.28C65.7943 42.28 64.9809 42.04 64.4209 41.56C63.8876 41.08 63.5543 40.4933 63.4209 39.8L63.3009 38.72C62.3943 39.8933 61.2609 40.8 59.9009 41.44C58.5409 42.08 57.1543 42.4 55.7409 42.4C54.3543 42.4 53.1009 42.12 51.9809 41.56C50.8876 40.9733 50.0209 40.1867 49.3809 39.2C48.7676 38.1867 48.4609 37.0533 48.4609 35.8ZM61.5009 36.88C61.7943 36.56 62.0343 36.24 62.2209 35.92C62.4076 35.6 62.5009 35.3067 62.5009 35.04V32.92C61.8609 32.6533 61.1676 32.4533 60.4209 32.32C59.6743 32.16 58.9676 32.08 58.3009 32.08C56.9143 32.08 55.7676 32.3867 54.8609 33C53.9809 33.5867 53.5409 34.3733 53.5409 35.36C53.5409 35.8933 53.6876 36.4 53.9809 36.88C54.2743 37.36 54.7009 37.7467 55.2609 38.04C55.8209 38.3333 56.4876 38.48 57.2609 38.48C58.0609 38.48 58.8476 38.3333 59.6209 38.04C60.3943 37.72 61.0209 37.3333 61.5009 36.88ZM71.5897 31.52C71.5897 29.4933 71.9897 27.6667 72.7897 26.04C73.5897 24.3867 74.6964 23.08 76.1097 22.12C77.523 21.16 79.1364 20.68 80.9497 20.68C82.4964 20.68 83.883 21.0667 85.1097 21.84C86.363 22.5867 87.3364 23.5467 88.0297 24.72V12.8H93.3897V36C93.3897 36.56 93.483 36.96 93.6697 37.2C93.8564 37.44 94.1764 37.5867 94.6297 37.64V42C93.6964 42.1867 92.9364 42.28 92.3497 42.28C91.3897 42.28 90.5897 42.04 89.9497 41.56C89.3364 41.08 88.9897 40.4533 88.9097 39.68L88.8297 38.36C88.0564 39.6667 87.003 40.6667 85.6697 41.36C84.363 42.0533 82.9897 42.4 81.5497 42.4C80.1097 42.4 78.7764 42.12 77.5497 41.56C76.3497 41 75.2964 40.2267 74.3897 39.24C73.5097 38.2533 72.8164 37.1067 72.3097 35.8C71.8297 34.4667 71.5897 33.04 71.5897 31.52ZM88.0297 34.32V29.32C87.763 28.5467 87.3364 27.8533 86.7497 27.24C86.163 26.6267 85.5097 26.1467 84.7897 25.8C84.0697 25.4267 83.3497 25.24 82.6297 25.24C81.803 25.24 81.0564 25.4133 80.3897 25.76C79.723 26.1067 79.1364 26.5733 78.6297 27.16C78.1497 27.7467 77.7764 28.4267 77.5097 29.2C77.2697 29.9733 77.1497 30.7867 77.1497 31.64C77.1497 32.4933 77.283 33.3067 77.5497 34.08C77.843 34.8267 78.2564 35.48 78.7897 36.04C79.323 36.6 79.9364 37.04 80.6297 37.36C81.3497 37.68 82.123 37.84 82.9497 37.84C83.4564 37.84 83.963 37.76 84.4697 37.6C85.003 37.4133 85.4964 37.1733 85.9497 36.88C86.4297 36.56 86.843 36.1867 87.1897 35.76C87.563 35.3067 87.843 34.8267 88.0297 34.32ZM106.371 42.4C104.584 42.4 102.878 42.1067 101.251 41.52C99.6243 40.9333 98.2243 40.0667 97.0509 38.92L98.9709 35.44C100.224 36.4533 101.451 37.2 102.651 37.68C103.878 38.16 105.051 38.4 106.171 38.4C107.211 38.4 108.038 38.2133 108.651 37.84C109.291 37.4667 109.611 36.9067 109.611 36.16C109.611 35.6533 109.438 35.2667 109.091 35C108.744 34.7067 108.238 34.4533 107.571 34.24C106.931 34.0267 106.144 33.7867 105.211 33.52C103.664 33.0133 102.371 32.52 101.331 32.04C100.291 31.56 99.5043 30.96 98.9709 30.24C98.4643 29.4933 98.2109 28.5467 98.2109 27.4C98.2109 26.0133 98.5576 24.8267 99.2509 23.84C99.9709 22.8267 100.958 22.04 102.211 21.48C103.491 20.92 104.984 20.64 106.691 20.64C108.184 20.64 109.598 20.88 110.931 21.36C112.264 21.8133 113.478 22.56 114.571 23.6L112.411 27C111.344 26.1733 110.331 25.5733 109.371 25.2C108.411 24.8 107.438 24.6 106.451 24.6C105.891 24.6 105.358 24.6667 104.851 24.8C104.371 24.9333 103.971 25.16 103.651 25.48C103.358 25.7733 103.211 26.2 103.211 26.76C103.211 27.2667 103.344 27.6667 103.611 27.96C103.904 28.2267 104.331 28.4667 104.891 28.68C105.478 28.8933 106.184 29.1333 107.011 29.4C108.691 29.88 110.104 30.3733 111.251 30.88C112.424 31.3867 113.304 32.0133 113.891 32.76C114.478 33.48 114.771 34.48 114.771 35.76C114.771 37.84 114.011 39.4667 112.491 40.64C110.971 41.8133 108.931 42.4 106.371 42.4ZM137.897 42H132.537V30.24C132.537 28.6133 132.217 27.4 131.577 26.6C130.963 25.8 130.11 25.4 129.017 25.4C128.377 25.4 127.697 25.5867 126.977 25.96C126.257 26.3333 125.603 26.8533 125.017 27.52C124.457 28.16 124.043 28.9067 123.777 29.76V42H118.417V12.8H123.777V24.92C124.55 23.5867 125.603 22.5467 126.937 21.8C128.27 21.0533 129.723 20.68 131.297 20.68C132.657 20.68 133.763 20.92 134.617 21.4C135.47 21.8533 136.137 22.48 136.617 23.28C137.097 24.0533 137.43 24.9333 137.617 25.92C137.803 26.88 137.897 27.88 137.897 28.92V42ZM141.117 35.8C141.117 34.44 141.491 33.2533 142.237 32.24C143.011 31.2 144.077 30.4 145.437 29.84C146.797 29.28 148.357 29 150.117 29C150.997 29 151.891 29.0667 152.797 29.2C153.704 29.3333 154.491 29.5467 155.157 29.84V28.72C155.157 27.3867 154.757 26.36 153.957 25.64C153.184 24.92 152.024 24.56 150.477 24.56C149.331 24.56 148.237 24.76 147.197 25.16C146.157 25.56 145.064 26.1467 143.917 26.92L142.197 23.4C143.584 22.4933 144.997 21.8133 146.437 21.36C147.904 20.9067 149.437 20.68 151.037 20.68C154.024 20.68 156.344 21.4267 157.997 22.92C159.677 24.4133 160.517 26.5467 160.517 29.32V36C160.517 36.56 160.611 36.96 160.797 37.2C161.011 37.44 161.344 37.5867 161.797 37.64V42C161.317 42.08 160.877 42.1467 160.477 42.2C160.104 42.2533 159.784 42.28 159.517 42.28C158.451 42.28 157.637 42.04 157.077 41.56C156.544 41.08 156.211 40.4933 156.077 39.8L155.957 38.72C155.051 39.8933 153.917 40.8 152.557 41.44C151.197 42.08 149.811 42.4 148.397 42.4C147.011 42.4 145.757 42.12 144.637 41.56C143.544 40.9733 142.677 40.1867 142.037 39.2C141.424 38.1867 141.117 37.0533 141.117 35.8ZM154.157 36.88C154.451 36.56 154.691 36.24 154.877 35.92C155.064 35.6 155.157 35.3067 155.157 35.04V32.92C154.517 32.6533 153.824 32.4533 153.077 32.32C152.331 32.16 151.624 32.08 150.957 32.08C149.571 32.08 148.424 32.3867 147.517 33C146.637 33.5867 146.197 34.3733 146.197 35.36C146.197 35.8933 146.344 36.4 146.637 36.88C146.931 37.36 147.357 37.7467 147.917 38.04C148.477 38.3333 149.144 38.48 149.917 38.48C150.717 38.48 151.504 38.3333 152.277 38.04C153.051 37.72 153.677 37.3333 154.157 36.88ZM178.006 25.68C176.379 25.68 174.926 26 173.646 26.64C172.366 27.2533 171.446 28.1467 170.886 29.32V42H165.526V21.04H170.446V25.52C171.193 24.08 172.139 22.9467 173.286 22.12C174.433 21.2933 175.646 20.84 176.926 20.76C177.219 20.76 177.446 20.76 177.606 20.76C177.766 20.76 177.899 20.7733 178.006 20.8V25.68ZM180.995 42V21.04H186.355V42H180.995ZM180.995 18.12V12.8H186.355V18.12H180.995ZM210.67 42H205.31V30.24C205.31 28.56 205.017 27.3333 204.43 26.56C203.843 25.7867 203.03 25.4 201.99 25.4C201.27 25.4 200.537 25.5867 199.79 25.96C199.07 26.3333 198.417 26.8533 197.83 27.52C197.243 28.16 196.817 28.9067 196.55 29.76V42H191.19V21.04H196.03V24.92C196.563 24.0133 197.243 23.2533 198.07 22.64C198.897 22 199.843 21.52 200.91 21.2C202.003 20.8533 203.15 20.68 204.35 20.68C205.657 20.68 206.723 20.92 207.55 21.4C208.403 21.8533 209.043 22.48 209.47 23.28C209.923 24.0533 210.23 24.9333 210.39 25.92C210.577 26.9067 210.67 27.9067 210.67 28.92V42ZM223.531 42.12C222.144 42.12 220.864 41.8533 219.691 41.32C218.544 40.76 217.544 39.9867 216.691 39C215.864 38.0133 215.224 36.88 214.771 35.6C214.317 34.32 214.091 32.96 214.091 31.52C214.091 30 214.331 28.5867 214.811 27.28C215.291 25.9733 215.957 24.8267 216.811 23.84C217.691 22.8267 218.717 22.0533 219.891 21.52C221.091 20.96 222.411 20.68 223.851 20.68C225.477 20.68 226.904 21.0533 228.131 21.8C229.357 22.52 230.371 23.4933 231.171 24.72V21.04H235.851V41C235.851 43.08 235.344 44.8533 234.331 46.32C233.344 47.8133 231.971 48.9467 230.211 49.72C228.451 50.52 226.451 50.92 224.211 50.92C221.944 50.92 220.024 50.5333 218.451 49.76C216.877 49.0133 215.531 47.9467 214.411 46.56L217.331 43.72C218.131 44.7067 219.131 45.48 220.331 46.04C221.557 46.6 222.851 46.88 224.211 46.88C225.357 46.88 226.397 46.6667 227.331 46.24C228.291 45.84 229.051 45.2 229.611 44.32C230.197 43.4667 230.491 42.36 230.491 41V38.36C229.797 39.56 228.811 40.4933 227.531 41.16C226.277 41.8 224.944 42.12 223.531 42.12ZM225.331 37.84C225.917 37.84 226.477 37.7467 227.011 37.56C227.544 37.3733 228.037 37.12 228.491 36.8C228.944 36.48 229.344 36.1067 229.691 35.68C230.037 35.2267 230.304 34.7733 230.491 34.32V29.32C230.171 28.4933 229.717 27.7733 229.131 27.16C228.571 26.5467 227.931 26.08 227.211 25.76C226.517 25.4133 225.784 25.24 225.011 25.24C224.184 25.24 223.437 25.4133 222.771 25.76C222.104 26.1067 221.531 26.6 221.051 27.24C220.571 27.8533 220.197 28.5467 219.931 29.32C219.691 30.0667 219.571 30.8533 219.571 31.68C219.571 32.5333 219.717 33.3333 220.011 34.08C220.304 34.8267 220.704 35.48 221.211 36.04C221.744 36.6 222.357 37.04 223.051 37.36C223.771 37.68 224.531 37.84 225.331 37.84Z" fill="black"/>
<rect x="177" y="7" width="18" height="12" fill="white"/>
<path d="M180.714 17.1C180.714 17.55 181.086 18 181.643 18H185.357C185.914 18 186.286 17.55 186.286 17.1V16.2H180.714V17.1ZM183.5 0C179.879 0 177 2.79 177 6.3C177 8.46 178.114 10.35 179.786 11.43V13.5C179.786 13.95 180.157 14.4 180.714 14.4H186.286C186.843 14.4 187.214 13.95 187.214 13.5V11.43C188.886 10.26 190 8.37 190 6.3C190 2.79 187.121 0 183.5 0Z" fill="black"/>
</svg>
